<?xml version="1.0" encoding="utf-8"?>
<!-- Generator: Adobe Illustrator 19.2.0, SVG Export Plug-In . SVG Version: 6.00 Build 0)  -->
<svg version="1.1" id="Layer_1" xmlns="http://www.w3.org/2000/svg" xmlns:xlink="http://www.w3.org/1999/xlink" x="0px" y="0px"
	 viewBox="0 0 317.5 317.5" style="enable-background:new 0 0 317.5 317.5;" xml:space="preserve">
<style type="text/css">
	.st0{fill:#4E459C;}
	.st1{opacity:0.6;fill:#F0EFEF;}
	.st2{opacity:0.8;fill:#F0EFEF;}
	.st3{opacity:0.4;fill:#F0EFEF;}
</style>
<rect class="st0" width="317.5" height="317.5"/>
<rect y="23.3" class="st1" width="317.5" height="68.7"/>
<rect x="39.2" y="110.7" class="st1" width="71.2" height="60.2"/>
<rect x="118.7" y="110.7" class="st1" width="71.2" height="60.2"/>
<rect x="198.8" y="110.7" class="st1" width="71.2" height="60.2"/>
<rect x="38.7" y="189.2" class="st1" width="152.3" height="4.9"/>
<rect x="38.7" y="208.2" class="st1" width="152.3" height="2.5"/>
<rect x="38.7" y="218.9" class="st1" width="152.3" height="2.5"/>
<rect x="38.7" y="229.7" class="st1" width="131.8" height="2.5"/>
<rect x="38.7" y="240.4" class="st1" width="110.3" height="2.5"/>
<rect x="38.7" y="251.6" class="st1" width="29" height="10.7"/>
<rect x="199.9" y="189.2" class="st1" width="72" height="4.9"/>
<rect x="199.9" y="208.2" class="st1" width="72" height="2.5"/>
<rect x="199.9" y="218.9" class="st1" width="72" height="2.5"/>
<rect x="199.9" y="229.7" class="st1" width="62.3" height="2.5"/>
<rect x="199.9" y="240.4" class="st1" width="52.1" height="2.5"/>
<rect x="199.9" y="251.6" class="st1" width="29" height="10.7"/>
<rect class="st2" width="317.5" height="20.9"/>
<rect y="286.5" class="st3" width="317.5" height="31.1"/>
</svg>
