<?xml version="1.0" encoding="utf-8"?>
<!-- Generator: Adobe Illustrator 19.2.0, SVG Export Plug-In . SVG Version: 6.00 Build 0)  -->
<svg version="1.1" id="Layer_1" xmlns="http://www.w3.org/2000/svg" xmlns:xlink="http://www.w3.org/1999/xlink" x="0px" y="0px"
	 viewBox="0 0 1015.1 917.9" style="enable-background:new 0 0 1015.1 917.9;" xml:space="preserve">
<style type="text/css">
	.st0{fill:#4D4D4C;}
	.st1{font-family:'Roboto-Regular';}
	.st2{font-size:15px;}
	.st3{fill:#93792D;}
	.st4{fill:#CBA72C;}
	.st5{fill:#F8CA10;}
	.st6{fill:#FFDD4E;}
	.st7{fill:#E0E1E0;}
	.st8{fill:#88D0C8;}
	.st9{fill:#6FC8B9;}
	.st10{fill:#33B69C;}
	.st11{fill:#157C68;}
	.st12{fill:#63AECE;}
	.st13{fill:#4598B5;}
	.st14{fill:#9DCDE7;}
	.st15{fill:#196071;}
	.st16{fill:#267588;}
	.st17{fill:#D9B1D3;}
	.st18{fill:#C695C3;}
	.st19{fill:#AA68AB;}
	.st20{fill:#9A509F;}
	.st21{fill:#2FAE4A;}
	.st22{fill:#90C967;}
	.st23{fill:#2B6E37;}
	.st24{fill:#61BB46;}
	.st25{fill:#F6873B;}
	.st26{fill:#F8AD73;}
	.st27{fill:#F26922;}
	.st28{fill:#F15A5A;}
	.st29{fill:#EE3130;}
	.st30{fill:#F7A8A9;}
	.st31{fill:#F48889;}
	.st32{fill:#D3BDDC;}
	.st33{fill:#6B4EA0;}
	.st34{fill:#8365AC;}
</style>
<text transform="matrix(1 0 0 1 0 12.5553)" class="st0 st1 st2">Home link</text>
<text transform="matrix(1 0 0 1 345.9553 12.5553)" class="st0 st1 st2">Search</text>
<text transform="matrix(1 0 0 1 697.2081 12.5553)" class="st0 st1 st2">Banner ads</text>
<text transform="matrix(1 0 0 1 0 328.5553)" class="st0 st1 st2">Navigation links</text>
<text transform="matrix(1 0 0 1 345.9553 328.5553)" class="st0 st1 st2">External links</text>
<text transform="matrix(1 0 0 1 697.2081 328.5553)" class="st0 st1 st2">Shopping cart</text>
<text transform="matrix(1 0 0 1 0 636.5553)" class="st0 st1 st2">Help link</text>
<text transform="matrix(1 0 0 1 345.9553 636.5553)" class="st0 st1 st2">About us</text>
<rect y="26.1" class="st3" width="43" height="43"/>
<rect x="45.8" y="26.1" class="st4" width="43" height="43"/>
<rect x="91.6" y="26.1" class="st5" width="43" height="43"/>
<rect x="137.5" y="26.1" class="st5" width="43" height="43"/>
<rect x="183.3" y="26.1" class="st4" width="43" height="43"/>
<rect x="229.1" y="26.1" class="st5" width="43" height="43"/>
<rect x="274.9" y="26.1" class="st4" width="43" height="43"/>
<rect y="72.3" class="st4" width="43" height="43"/>
<rect x="45.8" y="72.3" class="st3" width="43" height="43"/>
<rect x="91.6" y="72.3" class="st6" width="43" height="43"/>
<rect x="137.5" y="72.3" class="st7" width="43" height="43"/>
<rect x="183.3" y="72.3" class="st7" width="43" height="43"/>
<rect x="229.1" y="72.3" class="st7" width="43" height="43"/>
<rect x="274.9" y="72.3" class="st7" width="43" height="43"/>
<rect y="118.4" class="st4" width="43" height="43"/>
<rect x="45.8" y="118.4" class="st6" width="43" height="43"/>
<rect x="91.6" y="118.4" class="st7" width="43" height="43"/>
<rect x="137.5" y="118.4" class="st7" width="43" height="43"/>
<rect x="183.3" y="118.4" class="st7" width="43" height="43"/>
<rect x="229.1" y="118.4" class="st7" width="43" height="43"/>
<rect x="274.9" y="118.4" class="st7" width="43" height="43"/>
<rect y="164.6" class="st6" width="43" height="43"/>
<rect x="45.8" y="164.6" class="st7" width="43" height="43"/>
<rect x="91.6" y="164.6" class="st7" width="43" height="43"/>
<rect x="137.5" y="164.6" class="st7" width="43" height="43"/>
<rect x="183.3" y="164.6" class="st7" width="43" height="43"/>
<rect x="229.1" y="164.6" class="st7" width="43" height="43"/>
<rect x="274.9" y="164.6" class="st7" width="43" height="43"/>
<rect y="210.8" class="st7" width="43" height="43"/>
<rect x="45.8" y="210.8" class="st7" width="43" height="43"/>
<rect x="91.6" y="210.8" class="st7" width="43" height="43"/>
<rect x="137.5" y="210.8" class="st7" width="43" height="43"/>
<rect x="183.3" y="210.8" class="st7" width="43" height="43"/>
<rect x="229.1" y="210.8" class="st7" width="43" height="43"/>
<rect x="274.9" y="210.8" class="st7" width="43" height="43"/>
<rect y="257" class="st7" width="43" height="43"/>
<rect x="45.8" y="257" class="st7" width="43" height="43"/>
<rect x="91.6" y="257" class="st7" width="43" height="43"/>
<rect x="137.5" y="257" class="st7" width="43" height="43"/>
<rect x="183.3" y="257" class="st7" width="43" height="43"/>
<rect x="229.1" y="257" class="st7" width="43" height="43"/>
<rect x="274.9" y="257" class="st7" width="43" height="43"/>
<rect x="347.6" y="26.1" class="st8" width="43" height="43"/>
<rect x="393.4" y="26.1" class="st9" width="43" height="43"/>
<rect x="439.2" y="26.1" class="st8" width="43" height="43"/>
<rect x="485" y="26.1" class="st9" width="43" height="43"/>
<rect x="530.9" y="26.1" class="st10" width="43" height="43"/>
<rect x="576.7" y="26.1" class="st11" width="43" height="43"/>
<rect x="622.5" y="26.1" class="st11" width="43" height="43"/>
<rect x="347.6" y="72.3" class="st10" width="43" height="43"/>
<rect x="393.4" y="72.3" class="st8" width="43" height="43"/>
<rect x="439.2" y="72.3" class="st8" width="43" height="43"/>
<rect x="485" y="72.3" class="st8" width="43" height="43"/>
<rect x="530.9" y="72.3" class="st7" width="43" height="43"/>
<rect x="576.7" y="72.3" class="st7" width="43" height="43"/>
<rect x="622.5" y="72.3" class="st7" width="43" height="43"/>
<rect x="347.6" y="118.4" class="st10" width="43" height="43"/>
<rect x="393.4" y="118.4" class="st8" width="43" height="43"/>
<rect x="439.2" y="118.4" class="st7" width="43" height="43"/>
<rect x="485" y="118.4" class="st7" width="43" height="43"/>
<rect x="530.9" y="118.4" class="st7" width="43" height="43"/>
<rect x="576.7" y="118.4" class="st7" width="43" height="43"/>
<rect x="622.5" y="118.4" class="st7" width="43" height="43"/>
<rect x="347.6" y="164.6" class="st8" width="43" height="43"/>
<rect x="393.4" y="164.6" class="st7" width="43" height="43"/>
<rect x="439.2" y="164.6" class="st7" width="43" height="43"/>
<rect x="485" y="164.6" class="st7" width="43" height="43"/>
<rect x="530.9" y="164.6" class="st7" width="43" height="43"/>
<rect x="576.7" y="164.6" class="st7" width="43" height="43"/>
<rect x="622.5" y="164.6" class="st7" width="43" height="43"/>
<rect x="347.6" y="210.8" class="st8" width="43" height="43"/>
<rect x="393.4" y="210.8" class="st7" width="43" height="43"/>
<rect x="439.2" y="210.8" class="st7" width="43" height="43"/>
<rect x="485" y="210.8" class="st7" width="43" height="43"/>
<rect x="530.9" y="210.8" class="st7" width="43" height="43"/>
<rect x="576.7" y="210.8" class="st7" width="43" height="43"/>
<rect x="622.5" y="210.8" class="st7" width="43" height="43"/>
<rect x="347.6" y="257" class="st7" width="43" height="43"/>
<rect x="393.4" y="257" class="st7" width="43" height="43"/>
<rect x="439.2" y="257" class="st7" width="43" height="43"/>
<rect x="485" y="257" class="st7" width="43" height="43"/>
<rect x="530.9" y="257" class="st7" width="43" height="43"/>
<rect x="576.7" y="257" class="st7" width="43" height="43"/>
<rect x="622.5" y="257" class="st7" width="43" height="43"/>
<rect y="335" class="st12" width="43" height="43"/>
<rect x="45.8" y="335" class="st13" width="43" height="43"/>
<rect x="91.6" y="335" class="st13" width="43" height="43"/>
<rect x="137.5" y="335" class="st12" width="43" height="43"/>
<rect x="183.3" y="335" class="st14" width="43" height="43"/>
<rect x="229.1" y="335" class="st7" width="43" height="43"/>
<rect x="274.9" y="335" class="st7" width="43" height="43"/>
<rect y="381.2" class="st15" width="43" height="43"/>
<rect x="45.8" y="381.2" class="st12" width="43" height="43"/>
<rect x="91.6" y="381.2" class="st14" width="43" height="43"/>
<rect x="137.5" y="381.2" class="st14" width="43" height="43"/>
<rect x="183.3" y="381.2" class="st14" width="43" height="43"/>
<rect x="229.1" y="381.2" class="st12" width="43" height="43"/>
<rect x="274.9" y="381.2" class="st12" width="43" height="43"/>
<rect y="427.4" class="st16" width="43" height="43"/>
<rect x="45.8" y="427.4" class="st12" width="43" height="43"/>
<rect x="91.6" y="427.4" class="st7" width="43" height="43"/>
<rect x="137.5" y="427.4" class="st7" width="43" height="43"/>
<rect x="183.3" y="427.4" class="st7" width="43" height="43"/>
<rect x="229.1" y="427.4" class="st12" width="43" height="43"/>
<rect x="274.9" y="427.4" class="st12" width="43" height="43"/>
<rect y="473.5" class="st16" width="43" height="43"/>
<rect x="45.8" y="473.5" class="st14" width="43" height="43"/>
<rect x="91.6" y="473.5" class="st7" width="43" height="43"/>
<rect x="137.5" y="473.5" class="st7" width="43" height="43"/>
<rect x="183.3" y="473.5" class="st7" width="43" height="43"/>
<rect x="229.1" y="473.5" class="st7" width="43" height="43"/>
<rect x="274.9" y="473.5" class="st12" width="43" height="43"/>
<rect y="519.7" class="st16" width="43" height="43"/>
<rect x="45.8" y="519.7" class="st14" width="43" height="43"/>
<rect x="91.6" y="519.7" class="st7" width="43" height="43"/>
<rect x="137.5" y="519.7" class="st7" width="43" height="43"/>
<rect x="183.3" y="519.7" class="st7" width="43" height="43"/>
<rect x="229.1" y="519.7" class="st7" width="43" height="43"/>
<rect x="274.9" y="519.7" class="st12" width="43" height="43"/>
<rect y="565.9" class="st13" width="43" height="43"/>
<rect x="45.8" y="565.9" class="st7" width="43" height="43"/>
<rect x="91.6" y="565.9" class="st7" width="43" height="43"/>
<rect x="137.5" y="565.9" class="st7" width="43" height="43"/>
<rect x="183.3" y="565.9" class="st7" width="43" height="43"/>
<rect x="229.1" y="565.9" class="st7" width="43" height="43"/>
<rect x="274.9" y="565.9" class="st7" width="43" height="43"/>
<rect y="643.9" class="st7" width="43" height="43"/>
<rect x="45.8" y="643.9" class="st17" width="43" height="43"/>
<rect x="91.6" y="643.9" class="st17" width="43" height="43"/>
<rect x="137.5" y="643.9" class="st18" width="43" height="43"/>
<rect x="183.3" y="643.9" class="st19" width="43" height="43"/>
<rect x="229.1" y="643.9" class="st18" width="43" height="43"/>
<rect x="274.9" y="643.9" class="st20" width="43" height="43"/>
<rect y="690.1" class="st17" width="43" height="43"/>
<rect x="45.8" y="690.1" class="st17" width="43" height="43"/>
<rect x="91.6" y="690.1" class="st7" width="43" height="43"/>
<rect x="137.5" y="690.1" class="st7" width="43" height="43"/>
<rect x="183.3" y="690.1" class="st7" width="43" height="43"/>
<rect x="229.1" y="690.1" class="st18" width="43" height="43"/>
<rect x="274.9" y="690.1" class="st19" width="43" height="43"/>
<rect y="736.3" class="st17" width="43" height="43"/>
<rect x="45.8" y="736.3" class="st7" width="43" height="43"/>
<rect x="91.6" y="736.3" class="st7" width="43" height="43"/>
<rect x="137.5" y="736.3" class="st7" width="43" height="43"/>
<rect x="183.3" y="736.3" class="st7" width="43" height="43"/>
<rect x="229.1" y="736.3" class="st7" width="43" height="43"/>
<rect x="274.9" y="736.3" class="st18" width="43" height="43"/>
<rect y="782.5" class="st7" width="43" height="43"/>
<rect x="45.8" y="782.5" class="st7" width="43" height="43"/>
<rect x="91.6" y="782.5" class="st7" width="43" height="43"/>
<rect x="137.5" y="782.5" class="st7" width="43" height="43"/>
<rect x="183.3" y="782.5" class="st7" width="43" height="43"/>
<rect x="229.1" y="782.5" class="st7" width="43" height="43"/>
<rect x="274.9" y="782.5" class="st17" width="43" height="43"/>
<rect y="828.7" class="st7" width="43" height="43"/>
<rect x="45.8" y="828.7" class="st7" width="43" height="43"/>
<rect x="91.6" y="828.7" class="st7" width="43" height="43"/>
<rect x="137.5" y="828.7" class="st7" width="43" height="43"/>
<rect x="183.3" y="828.7" class="st7" width="43" height="43"/>
<rect x="229.1" y="828.7" class="st7" width="43" height="43"/>
<rect x="274.9" y="828.7" class="st7" width="43" height="43"/>
<rect y="874.9" class="st7" width="43" height="43"/>
<rect x="45.8" y="874.9" class="st7" width="43" height="43"/>
<rect x="91.6" y="874.9" class="st7" width="43" height="43"/>
<rect x="137.5" y="874.9" class="st7" width="43" height="43"/>
<rect x="183.3" y="874.9" class="st7" width="43" height="43"/>
<rect x="229.1" y="874.9" class="st7" width="43" height="43"/>
<rect x="274.9" y="874.9" class="st7" width="43" height="43"/>
<rect x="346.9" y="335" class="st7" width="43" height="43"/>
<rect x="392.7" y="335" class="st7" width="43" height="43"/>
<rect x="438.5" y="335" class="st7" width="43" height="43"/>
<rect x="484.3" y="335" class="st21" width="43" height="43"/>
<rect x="530.2" y="335" class="st21" width="43" height="43"/>
<rect x="576" y="335" class="st22" width="43" height="43"/>
<rect x="621.8" y="335" class="st22" width="43" height="43"/>
<rect x="346.9" y="381.2" class="st7" width="43" height="43"/>
<rect x="392.7" y="381.2" class="st7" width="43" height="43"/>
<rect x="438.5" y="381.2" class="st7" width="43" height="43"/>
<rect x="484.3" y="381.2" class="st7" width="43" height="43"/>
<rect x="530.2" y="381.2" class="st22" width="43" height="43"/>
<rect x="576" y="381.2" class="st21" width="43" height="43"/>
<rect x="621.8" y="381.2" class="st23" width="43" height="43"/>
<rect x="346.9" y="427.4" class="st22" width="43" height="43"/>
<rect x="392.7" y="427.4" class="st22" width="43" height="43"/>
<rect x="438.5" y="427.4" class="st7" width="43" height="43"/>
<rect x="484.3" y="427.4" class="st7" width="43" height="43"/>
<rect x="530.2" y="427.4" class="st22" width="43" height="43"/>
<rect x="576" y="427.4" class="st21" width="43" height="43"/>
<rect x="621.8" y="427.4" class="st23" width="43" height="43"/>
<rect x="346.9" y="473.5" class="st22" width="43" height="43"/>
<rect x="392.7" y="473.5" class="st7" width="43" height="43"/>
<rect x="438.5" y="473.5" class="st7" width="43" height="43"/>
<rect x="484.3" y="473.5" class="st7" width="43" height="43"/>
<rect x="530.2" y="473.5" class="st7" width="43" height="43"/>
<rect x="576" y="473.5" class="st24" width="43" height="43"/>
<rect x="621.8" y="473.5" class="st21" width="43" height="43"/>
<rect x="346.9" y="519.7" class="st21" width="43" height="43"/>
<rect x="392.7" y="519.7" class="st7" width="43" height="43"/>
<rect x="438.5" y="519.7" class="st7" width="43" height="43"/>
<rect x="484.3" y="519.7" class="st7" width="43" height="43"/>
<rect x="530.2" y="519.7" class="st7" width="43" height="43"/>
<rect x="576" y="519.7" class="st22" width="43" height="43"/>
<rect x="621.8" y="519.7" class="st24" width="43" height="43"/>
<rect x="346.9" y="565.9" class="st22" width="43" height="43"/>
<rect x="392.7" y="565.9" class="st22" width="43" height="43"/>
<rect x="438.5" y="565.9" class="st22" width="43" height="43"/>
<rect x="484.3" y="565.9" class="st22" width="43" height="43"/>
<rect x="530.2" y="565.9" class="st22" width="43" height="43"/>
<rect x="576" y="565.9" class="st7" width="43" height="43"/>
<rect x="621.8" y="565.9" class="st7" width="43" height="43"/>
<rect x="346.9" y="643.9" class="st25" width="43" height="43"/>
<rect x="392.7" y="643.9" class="st26" width="43" height="43"/>
<rect x="438.5" y="643.9" class="st26" width="43" height="43"/>
<rect x="484.3" y="643.9" class="st26" width="43" height="43"/>
<rect x="530.2" y="643.9" class="st26" width="43" height="43"/>
<rect x="576" y="643.9" class="st26" width="43" height="43"/>
<rect x="621.8" y="643.9" class="st25" width="43" height="43"/>
<rect x="346.9" y="690.1" class="st25" width="43" height="43"/>
<rect x="392.7" y="690.1" class="st7" width="43" height="43"/>
<rect x="438.5" y="690.1" class="st7" width="43" height="43"/>
<rect x="484.3" y="690.1" class="st7" width="43" height="43"/>
<rect x="530.2" y="690.1" class="st7" width="43" height="43"/>
<rect x="576" y="690.1" class="st26" width="43" height="43"/>
<rect x="621.8" y="690.1" class="st26" width="43" height="43"/>
<rect x="346.9" y="736.3" class="st26" width="43" height="43"/>
<rect x="392.7" y="736.3" class="st7" width="43" height="43"/>
<rect x="438.5" y="736.3" class="st7" width="43" height="43"/>
<rect x="484.3" y="736.3" class="st7" width="43" height="43"/>
<rect x="530.2" y="736.3" class="st7" width="43" height="43"/>
<rect x="576" y="736.3" class="st7" width="43" height="43"/>
<rect x="621.8" y="736.3" class="st26" width="43" height="43"/>
<rect x="346.9" y="782.5" class="st26" width="43" height="43"/>
<rect x="392.7" y="782.5" class="st7" width="43" height="43"/>
<rect x="438.5" y="782.5" class="st7" width="43" height="43"/>
<rect x="484.3" y="782.5" class="st7" width="43" height="43"/>
<rect x="530.2" y="782.5" class="st7" width="43" height="43"/>
<rect x="576" y="782.5" class="st7" width="43" height="43"/>
<rect x="621.8" y="782.5" class="st26" width="43" height="43"/>
<rect x="346.9" y="828.7" class="st26" width="43" height="43"/>
<rect x="392.7" y="828.7" class="st7" width="43" height="43"/>
<rect x="438.5" y="828.7" class="st7" width="43" height="43"/>
<rect x="484.3" y="828.7" class="st7" width="43" height="43"/>
<rect x="530.2" y="828.7" class="st7" width="43" height="43"/>
<rect x="576" y="828.7" class="st7" width="43" height="43"/>
<rect x="621.8" y="828.7" class="st26" width="43" height="43"/>
<rect x="346.9" y="874.9" class="st25" width="43" height="43"/>
<rect x="392.7" y="874.9" class="st26" width="43" height="43"/>
<rect x="438.5" y="874.9" class="st25" width="43" height="43"/>
<rect x="484.3" y="874.9" class="st27" width="43" height="43"/>
<rect x="530.2" y="874.9" class="st25" width="43" height="43"/>
<rect x="576" y="874.9" class="st26" width="43" height="43"/>
<rect x="621.8" y="874.9" class="st26" width="43" height="43"/>
<rect x="697.2" y="335" class="st7" width="43" height="43"/>
<rect x="743" y="335" class="st7" width="43" height="43"/>
<rect x="788.8" y="335" class="st28" width="43" height="43"/>
<rect x="834.7" y="335" class="st28" width="43" height="43"/>
<rect x="880.5" y="335" class="st28" width="43" height="43"/>
<rect x="926.3" y="335" class="st29" width="43" height="43"/>
<rect x="972.1" y="335" class="st28" width="43" height="43"/>
<rect x="697.2" y="381.2" class="st7" width="43" height="43"/>
<rect x="743" y="381.2" class="st7" width="43" height="43"/>
<rect x="788.8" y="381.2" class="st7" width="43" height="43"/>
<rect x="834.7" y="381.2" class="st30" width="43" height="43"/>
<rect x="880.5" y="381.2" class="st31" width="43" height="43"/>
<rect x="926.3" y="381.2" class="st29" width="43" height="43"/>
<rect x="972.1" y="381.2" class="st28" width="43" height="43"/>
<rect x="697.2" y="427.4" class="st7" width="43" height="43"/>
<rect x="743" y="427.4" class="st7" width="43" height="43"/>
<rect x="788.8" y="427.4" class="st7" width="43" height="43"/>
<rect x="834.7" y="427.4" class="st7" width="43" height="43"/>
<rect x="880.5" y="427.4" class="st7" width="43" height="43"/>
<rect x="926.3" y="427.4" class="st30" width="43" height="43"/>
<rect x="972.1" y="427.4" class="st31" width="43" height="43"/>
<rect x="697.2" y="473.5" class="st7" width="43" height="43"/>
<rect x="743" y="473.5" class="st7" width="43" height="43"/>
<rect x="788.8" y="473.5" class="st7" width="43" height="43"/>
<rect x="834.7" y="473.5" class="st7" width="43" height="43"/>
<rect x="880.5" y="473.5" class="st7" width="43" height="43"/>
<rect x="926.3" y="473.5" class="st7" width="43" height="43"/>
<rect x="972.1" y="473.5" class="st30" width="43" height="43"/>
<rect x="697.2" y="519.7" class="st7" width="43" height="43"/>
<rect x="743" y="519.7" class="st7" width="43" height="43"/>
<rect x="788.8" y="519.7" class="st7" width="43" height="43"/>
<rect x="834.7" y="519.7" class="st7" width="43" height="43"/>
<rect x="880.5" y="519.7" class="st7" width="43" height="43"/>
<rect x="926.3" y="519.7" class="st7" width="43" height="43"/>
<rect x="972.1" y="519.7" class="st31" width="43" height="43"/>
<rect x="697.2" y="565.9" class="st7" width="43" height="43"/>
<rect x="743" y="565.9" class="st7" width="43" height="43"/>
<rect x="788.8" y="565.9" class="st7" width="43" height="43"/>
<rect x="834.7" y="565.9" class="st7" width="43" height="43"/>
<rect x="880.5" y="565.9" class="st7" width="43" height="43"/>
<rect x="926.3" y="565.9" class="st7" width="43" height="43"/>
<rect x="972.1" y="565.9" class="st31" width="43" height="43"/>
<rect x="697.2" y="27.7" class="st7" width="43" height="43"/>
<rect x="743" y="27.7" class="st32" width="43" height="43"/>
<rect x="788.8" y="27.7" class="st33" width="43" height="43"/>
<rect x="834.7" y="27.7" class="st33" width="43" height="43"/>
<rect x="880.5" y="27.7" class="st33" width="43" height="43"/>
<rect x="926.3" y="27.7" class="st34" width="43" height="43"/>
<rect x="972.1" y="27.7" class="st34" width="43" height="43"/>
<rect x="697.2" y="73.9" class="st7" width="43" height="43"/>
<rect x="743" y="73.9" class="st32" width="43" height="43"/>
<rect x="788.8" y="73.9" class="st32" width="43" height="43"/>
<rect x="834.7" y="73.9" class="st32" width="43" height="43"/>
<rect x="880.5" y="73.9" class="st32" width="43" height="43"/>
<rect x="926.3" y="73.9" class="st32" width="43" height="43"/>
<rect x="972.1" y="73.9" class="st32" width="43" height="43"/>
<rect x="697.2" y="120.1" class="st7" width="43" height="43"/>
<rect x="743" y="120.1" class="st7" width="43" height="43"/>
<rect x="788.8" y="120.1" class="st7" width="43" height="43"/>
<rect x="834.7" y="120.1" class="st7" width="43" height="43"/>
<rect x="880.5" y="120.1" class="st32" width="43" height="43"/>
<rect x="926.3" y="120.1" class="st32" width="43" height="43"/>
<rect x="972.1" y="120.1" class="st33" width="43" height="43"/>
<rect x="697.2" y="166.2" class="st7" width="43" height="43"/>
<rect x="743" y="166.2" class="st7" width="43" height="43"/>
<rect x="788.8" y="166.2" class="st7" width="43" height="43"/>
<rect x="834.7" y="166.2" class="st7" width="43" height="43"/>
<rect x="880.5" y="166.2" class="st7" width="43" height="43"/>
<rect x="926.3" y="166.2" class="st32" width="43" height="43"/>
<rect x="972.1" y="166.2" class="st33" width="43" height="43"/>
<rect x="697.2" y="212.4" class="st7" width="43" height="43"/>
<rect x="743" y="212.4" class="st7" width="43" height="43"/>
<rect x="788.8" y="212.4" class="st7" width="43" height="43"/>
<rect x="834.7" y="212.4" class="st7" width="43" height="43"/>
<rect x="880.5" y="212.4" class="st7" width="43" height="43"/>
<rect x="926.3" y="212.4" class="st32" width="43" height="43"/>
<rect x="972.1" y="212.4" class="st32" width="43" height="43"/>
<rect x="697.2" y="258.6" class="st7" width="43" height="43"/>
<rect x="743" y="258.6" class="st32" width="43" height="43"/>
<rect x="788.8" y="258.6" class="st34" width="43" height="43"/>
<rect x="834.7" y="258.6" class="st32" width="43" height="43"/>
<rect x="880.5" y="258.6" class="st34" width="43" height="43"/>
<rect x="926.3" y="258.6" class="st32" width="43" height="43"/>
<rect x="972.1" y="258.6" class="st32" width="43" height="43"/>
</svg>
