<?xml version="1.0" encoding="utf-8"?>
<!-- Generator: Adobe Illustrator 19.2.0, SVG Export Plug-In . SVG Version: 6.00 Build 0)  -->
<svg version="1.1" id="Layer_1" xmlns="http://www.w3.org/2000/svg" xmlns:xlink="http://www.w3.org/1999/xlink" x="0px" y="0px"
	 viewBox="0 0 1212 1766.6" style="enable-background:new 0 0 1212 1766.6;" xml:space="preserve">
<style type="text/css">
	.st0{fill:#9E9E9E;}
	.st1{opacity:0.85;fill:#FFFFFF;}
	.st2{fill:#212121;}
	.st3{opacity:0.9;}
	.st4{fill:#FFFFFF;}
	.st5{fill:none;}
	.st6{font-family:'Roboto-Regular';}
	.st7{font-size:12px;}
	.st8{fill:#010101;}
	.st9{font-size:13px;}
	.st10{font-size:36px;}
	.st11{fill:#F5F6F6;}
	.st12{font-size:15px;}
	.st13{font-family:'Roboto-Light';}
	.st14{font-size:18px;}
</style>
<rect x="6" y="29" class="st0" width="1199.9" height="548.5"/>
<rect x="6" y="597.9" class="st0" width="1199.9" height="281.2"/>
<rect x="6" y="94.7" class="st1" width="1200" height="43.2"/>
<rect x="6" class="st2" width="1200" height="31"/>
<g class="st3">
	
		<image style="overflow:visible;opacity:0.1;" width="5050" height="317" xlink:href="37930744.png"  transform="matrix(0.24 0 0 0.24 0 27.0061)">
	</image>
	<g>
		<rect x="6" y="31" class="st4" width="1200" height="63.9"/>
	</g>
</g>
<rect x="297.8" y="10" class="st5" width="616.5" height="19"/>
<text transform="matrix(1 0 0 1 573.1989 18.52)" class="st4 st6 st7">Website alert</text>
<rect x="115" y="43.5" class="st0" width="140.3" height="38.2"/>
<rect x="794.9" y="39.8" class="st0" width="302" height="46"/>
<text transform="matrix(1 0 0 1 826.2794 75.9998)" class="st8 st6 st7">(Log in, account, contact us, notification, search)</text>
<text transform="matrix(1 0 0 1 898.6974 58.6665)" class="st8 st6 st9">Utility Navigation</text>
<rect x="115" y="102.8" class="st0" width="580.5" height="28.8"/>
<text transform="matrix(1 0 0 1 357.3275 121.6665)" class="st8 st6 st9">Global navigation</text>
<text transform="matrix(1 0 0 1 437.7987 749.0446)" class="st8 st6 st10">Related content (FYI)</text>
<rect x="6" y="904.5" class="st0" width="1199.9" height="281.2"/>
<text transform="matrix(1 0 0 1 503.8309 1055.6371)" class="st8 st6 st10">Help content</text>
<rect x="6" y="1211.4" class="st0" width="1199.9" height="281.2"/>
<text transform="matrix(1 0 0 1 283.7968 1362.5424)" class="st8 st6 st10">Legal, disclaimer, and mandated content</text>
<rect x="6" y="1524.9" class="st2" width="1199.9" height="241.6"/>
<text transform="matrix(1 0 0 1 554.1659 1600.4404)" class="st11 st6 st10">Footer</text>
<text transform="matrix(1 0 0 1 501.1857 353.7706)" class="st8 st6 st10">Call to action</text>
<text transform="matrix(1 0 0 1 168.3717 66.9806)" class="st2 st6 st12">Logo</text>
<text transform="matrix(1 0 0 1 407.5465 1645.7156)" class="st11 st13 st14">Portal navigation: Provider, employer, and producer</text>
<text transform="matrix(1 0 0 1 523.9669 1710.7156)" class="st11 st13 st14">Social media sharing</text>
</svg>
