<svg id="Layer_1" data-name="Layer 1" xmlns="http://www.w3.org/2000/svg" viewBox="0 0 115.72 115.73">
  <defs>
    <style>
      .cls-1, .cls-2 {
        fill: #0099d8;
      }

      .cls-1 {
        fill-rule: evenodd;
      }

      .cls-3 {
        fill: #fff;
      }
    </style>
  </defs>
  <title>pbc-logo-mobile</title>
  <path class="cls-1" d="M96,114.42A6.4,6.4,0,1,0,89.84,108,6.16,6.16,0,0,0,96,114.42h0ZM88.32,108a7.68,7.68,0,1,1,7.7,7.7,7.61,7.61,0,0,1-7.7-7.7h0Z"/>
  <path class="cls-1" d="M96,107.48c1.13,0,2.13-.08,2.13-1.45,0-1.09-1-1.29-1.91-1.29h-1.8v2.74H96Zm-1.58,5H93.09v-8.86h3.33c2.07,0,3.09.77,3.09,2.52a2.29,2.29,0,0,1-2.27,2.44l2.49,3.9H98.24l-2.3-3.84H94.41v3.84h0Z"/>
  <polygon class="cls-2" points="115.72 32.3 115.72 83.42 83.42 83.42 83.42 115.73 32.3 115.73 32.3 83.42 0 83.42 0 32.3 32.3 32.3 32.3 0 83.42 0 83.42 32.3 115.72 32.3 115.72 32.3"/>
  <path class="cls-3" d="M55,37.31a4.1,4.1,0,1,1,7-2.9,4,4,0,0,1-1.16,2.81,4.1,4.1,0,0,0,2.87,7l22.9,0a31.7,31.7,0,0,0-57.22,0l22.69,0a4.1,4.1,0,0,0,4.1-4.1A4,4,0,0,0,55,37.31h0Z"/>
  <path class="cls-3" d="M53.05,54.92a3.85,3.85,0,0,0-3.41-5.66l-21.37-2.4a31.73,31.73,0,0,0,10,35.82L52.93,55.15l0.12-.22h0Z"/>
  <path class="cls-3" d="M59.37,61.09a2.12,2.12,0,0,0-1.54-.69,2.16,2.16,0,0,0-1.55.69L40.7,84.41a31.7,31.7,0,0,0,34.37.16L59.37,61.09h0Z"/>
  <path class="cls-3" d="M87.75,46.92L66.33,49.28a3.93,3.93,0,0,0-4.21,3.84A3.84,3.84,0,0,0,62.59,55L77.44,82.89a31.73,31.73,0,0,0,10.31-36h0Z"/>
  <path class="cls-2" d="M51.08,39C51.38,40,51,40.4,50.5,40.39H36.71a27.58,27.58,0,0,1,13.82-9A8,8,0,0,0,51.08,39h0Z"/>
  <path class="cls-2" d="M79.31,40.39H65.14a0.81,0.81,0,0,1-.8-0.81,9.42,9.42,0,0,0,1.56-4.94,8,8,0,0,0-.75-3.4,27.63,27.63,0,0,1,14.15,9.14h0Z"/>
  <path class="cls-2" d="M48.94,54.35L37.37,76.12a27.64,27.64,0,0,1-6.12-24.87l17.07,1.9a0.76,0.76,0,0,1,.76.76l-0.14.44h0Z"/>
  <path class="cls-2" d="M58.74,66.64L69.54,82.88a27.66,27.66,0,0,1-23.28-.09L57.12,66.56a0.87,0.87,0,0,1,.77-0.46,1,1,0,0,1,.85.54h0Z"/>
  <path class="cls-2" d="M67.11,53.87a0.75,0.75,0,0,1,.76-0.76l16.88-1.86a27.78,27.78,0,0,1,.8,6.61A27.45,27.45,0,0,1,78.73,76L67.26,54.35l-0.15-.47h0Z"/>
</svg>
