<?xml version="1.0" encoding="utf-8"?>
<!-- Generator: Adobe Illustrator 19.2.0, SVG Export Plug-In . SVG Version: 6.00 Build 0)  -->
<svg version="1.1" xmlns="http://www.w3.org/2000/svg" xmlns:xlink="http://www.w3.org/1999/xlink" x="0px" y="0px"
	 viewBox="0 0 115.7 115.7" style="enable-background:new 0 0 115.7 115.7;" xml:space="preserve">
<style type="text/css">
	.st0{fill:none;}
	.st1{fill:#FFFFFF;}
</style>
<g id="Layer_1">
	<path class="st0" d="M96.5,101.6c-3.5-0.1-6.5,2.6-6.6,6.2c0,0.1,0,0.1,0,0.2c-0.1,3.4,2.5,6.3,5.9,6.4c0.1,0,0.2,0,0.3,0
		c3.5,0.1,6.5-2.6,6.6-6.2C102.8,104.7,100,101.8,96.5,101.6z M98.2,112.5l-2.3-3.8h-1.5v3.8h0h0h-1.3v-8.9h3.3
		c2.1,0,3.1,0.8,3.1,2.5c0.1,1.3-0.9,2.4-2.1,2.4c0,0-0.1,0-0.1,0l2.5,3.9H98.2z"/>
	<path class="st0" d="M98.1,106c0-1.1-1-1.3-1.9-1.3h-1.8v2.7H96C97.1,107.5,98.1,107.4,98.1,106z"/>
	<path class="st1" d="M96,100.3c-4.2,0-7.7,3.4-7.7,7.7c0,0.1,0,0.1,0,0.2c0,4.2,3.5,7.6,7.7,7.5c4.2,0,7.6-3.4,7.7-7.7
		C103.7,103.8,100.3,100.4,96,100.3z M96,114.4c-0.1,0-0.2,0-0.3,0c-3.4-0.1-6-3-5.9-6.4c0-0.1,0-0.1,0-0.2c0.1-3.5,3.1-6.3,6.6-6.2
		c3.5,0.1,6.3,3.1,6.2,6.6C102.5,111.8,99.5,114.6,96,114.4z"/>
	<path class="st1" d="M97.4,108.6c1.3-0.1,2.2-1.2,2.1-2.4c0-1.8-1-2.5-3.1-2.5h-3.3v8.9h1.3v-3.8h1.5l2.3,3.8h1.5l-2.5-3.9
		C97.3,108.6,97.3,108.6,97.4,108.6z M94.4,107.5v-2.7h1.8c0.9,0,1.9,0.2,1.9,1.3c0,1.4-1,1.5-2.1,1.5H94.4z"/>
	<path class="st1" d="M83.4,32.3V0H32.3v32.3H0v51.1h32.3v32.3h51.1V83.4h32.3V32.3H83.4z M44.3,29.3c15.8-7.5,34.7-0.8,42.3,15
		H63.7c-1.1,0-2.1-0.4-2.9-1.2c-1.6-1.6-1.6-4.2,0-5.8c0.7-0.7,1.2-1.8,1.2-2.8c0-1.1-0.4-2.1-1.2-2.9c-1.6-1.6-4.2-1.6-5.8,0
		c-1.6,1.6-1.6,4.2,0,5.8c0.7,0.7,1.2,1.8,1.2,2.8c0,2.3-1.8,4.1-4.1,4.1H29.4C32.5,37.7,37.8,32.4,44.3,29.3z M28.3,46.9l21.4,2.4
		c0.6,0,1.3,0.2,1.8,0.5c1.9,1,2.6,3.3,1.6,5.2v0l-0.1,0.2L38.3,82.7C27.6,74.1,23.5,59.7,28.3,46.9z M40.7,84.4l15.6-23.3
		c0.4-0.4,1-0.7,1.5-0.7c0.6,0,1.1,0.3,1.5,0.7l15.7,23.5C64.6,91.3,51.1,91.2,40.7,84.4z M77.4,82.9L62.6,55
		c-0.3-0.6-0.5-1.2-0.5-1.9c0-0.1,0-0.1,0-0.2c0.2-2.2,2-3.8,4.2-3.6l21.4-2.4v0C92.5,59.9,88.3,74.4,77.4,82.9z"/>
	<path class="st1" d="M50.5,31.4c-5.4,1.5-10.2,4.7-13.8,9h13.8c0.5,0,0.9-0.4,0.6-1.4C49.6,36.7,49.4,33.9,50.5,31.4z"/>
	<path class="st1" d="M65.1,40.4h14.2l0,0c-3.7-4.4-8.6-7.6-14.1-9.1c0.5,1.1,0.8,2.2,0.8,3.4c0,1.8-0.6,3.5-1.6,4.9
		C64.3,40,64.7,40.4,65.1,40.4z"/>
	<path class="st1" d="M48.3,53.1l-17.1-1.9c-2.2,8.8,0.1,18.1,6.1,24.9l11.6-21.8l0.1-0.4C49.1,53.5,48.7,53.1,48.3,53.1z"/>
	<path class="st1" d="M57.9,66.1c-0.3,0-0.6,0.2-0.8,0.5L46.3,82.8c7.4,3.5,15.9,3.5,23.3,0.1L58.7,66.6
		C58.6,66.3,58.2,66.1,57.9,66.1z"/>
	<path class="st1" d="M67.9,53.1C67.9,53.1,67.9,53.1,67.9,53.1c-0.4,0-0.8,0.3-0.8,0.8v0l0.2,0.5L78.7,76c4.4-5,6.8-11.5,6.8-18.1
		c0-2.2-0.3-4.4-0.8-6.6L67.9,53.1z"/>
</g>
<g id="Layer_2">
</g>
</svg>
