<svg id="Layer_1" data-name="Layer 1" width="100%" xmlns="http://www.w3.org/2000/svg" viewBox="0 0 836.43 231.69">
  <defs>
    <style>
      .cls-1, .cls-7 {
        fill: #0099d8;
      }

      .cls-2, .cls-3 {
        fill: #fff;
      }

      .cls-2, .cls-6, .cls-7 {
        fill-rule: evenodd;
      }

      .cls-4 {
        fill: none;
        stroke: #231f20;
        stroke-miterlimit: 3.86;
        stroke-width: 1.5px;
      }

      .cls-5, .cls-6 {
        fill: #231f20;
      }
    </style>
  </defs>
  <title>Untitled-1</title>
  <g>
    <polygon class="cls-1" points="0 154.4 836.43 154.4 836.43 231.69 0 231.69 0 154.4 0 154.4"/>
    <path class="cls-2" d="M22.15,209.64h15.1c8.65,0,13-3,13-9.07,0-4.6-2.76-7.09-8.06-8.06,4.74-1.1,7.09-3.59,7.09-7.45,0-5.95-4.83-8.57-14.69-8.57H22.15v33.16h0ZM31,189.93v-7.45h3.55c3.82,0,5.71,1.29,5.71,3.68,0,2.63-1.8,3.77-5.71,3.77H31Zm0,13.67v-8h3.55c4.29,0,6.31,1.2,6.31,3.92,0,2.94-2,4-6.31,4H31Z"/>
    <polygon class="cls-3" points="57.26 209.64 81.16 209.64 81.16 203.24 66.42 203.24 66.42 176.49 57.26 176.49 57.26 209.64 57.26 209.64"/>
    <path class="cls-3" d="M85.39,176.49v20.17c0,8.93,5.11,13.54,15.15,13.54,10.55,0,16.16-4.65,16.16-13.12V176.49h-8.88v19.76c0,4.74-2.49,7.32-6.68,7.32s-6.45-2.44-6.45-7.32V176.49h-9.3Z"/>
    <polygon class="cls-3" points="125 209.64 149.9 209.64 149.9 203.01 133.93 203.01 133.93 195.92 148.71 195.92 148.71 189.61 133.93 189.61 133.93 182.85 149.45 182.85 149.45 176.49 125 176.49 125 209.64 125 209.64"/>
    <path class="cls-3" d="M205.32,199h-9.48c-0.18,2.95-2.3,4.69-5.57,4.69-4.56,0-6.9-3.4-6.9-10.17,0-7.32,2.35-11,6.81-11,3.27,0,5.38,1.71,5.57,4.46h9.39c-0.28-7-5.25-10.91-14.46-10.91-11,0-16.85,6.22-16.85,17.73,0,10.49,5.94,16.43,16.26,16.43,9.71,0,15.24-4.19,15.24-10.87V199h0Z"/>
    <path class="cls-2" d="M212.58,209.64h9.07v-12.8h3.55c2.72,0,4,.88,4.51,3.45,0.37,1.93.51,5.07,1.29,9.35h9.9c-1.48-5.16-1.52-9.12-2.16-11.42-1-3.41-2.86-4.88-6.63-4.88v-0.19c5.06-.64,7.82-3.59,7.82-8.15,0-5.62-4.14-8.52-12.38-8.52h-15v33.16h0Zm9.07-18.88V182.7h3.82c3.77,0,5.43,1,5.43,3.91,0,3.13-1.57,4.15-5.62,4.15h-3.64Z"/>
    <path class="cls-2" d="M256.1,193c0-6.86,2.53-10.32,7.46-10.32S271,186.16,271,193s-2.49,10.31-7.42,10.31-7.46-3.45-7.46-10.31h0Zm-9.48,0c0,10.77,6.26,17.13,16.94,17.13s16.94-6.4,16.94-17.12S274.29,176,263.56,176s-16.94,6.31-16.94,17.08h0Z"/>
    <path class="cls-3" d="M295.6,199h-9.21c0,7.27,4.75,11.23,13.81,11.23,10,0,15.24-3.82,15.24-10.5,0-5-2.81-7.87-8.84-9.44-6.67-1.7-10.27-2-10.27-5,0-2,1.71-3.41,4.42-3.41s4.19,1.42,4.19,4.19v0.14h9.21v-0.55c0-6.4-4.56-9.71-13.45-9.71s-13.86,4.37-13.86,9.85c0,6,3.59,8.11,11.14,10.13,5,1.34,7.88,1.51,7.88,4.51,0,2.35-1.8,3.59-5.39,3.59a4.5,4.5,0,0,1-4.88-4.83V199h0Z"/>
    <path class="cls-3" d="M330.74,199h-9.21c0,7.27,4.74,11.23,13.81,11.23,10,0,15.24-3.82,15.24-10.5,0-5-2.81-7.87-8.84-9.44-6.68-1.7-10.27-2-10.27-5,0-2,1.71-3.41,4.42-3.41s4.19,1.42,4.19,4.19v0.14h9.21v-0.55c0-6.4-4.56-9.71-13.45-9.71S322,180.31,322,185.79c0,6,3.59,8.11,11.14,10.13,5,1.34,7.87,1.51,7.87,4.51,0,2.35-1.8,3.59-5.39,3.59a4.5,4.5,0,0,1-4.88-4.83V199h0Z"/>
    <line class="cls-4" x1="664.93" y1="0.15" x2="664.93" y2="115.77"/>
    <path class="cls-5" d="M324.61,70.19l6.3-14.29c5-11.45,11.18-25.74,15.87-36.87,0.64-1.53,2-1.81,3.35-1.81h19.22a1.64,1.64,0,0,1,1.51,1.09,1.75,1.75,0,0,1-1.32,1.54c-4.54.6-5.9,2.58-5.39,9.41l6.55,60.36c0.51,6.76,1.63,8.66,5.56,9.5a1.47,1.47,0,0,1,1.16,1.42,1.16,1.16,0,0,1-1.25,1.2c-2.7,0-9.18-.86-13.41-0.86s-10.92.86-13.49,0.86a1.16,1.16,0,0,1-1.25-1.2,1.46,1.46,0,0,1,1.16-1.42c3.88-.83,4.79-2.64,4.28-9.41l-5.19-51.46-0.58,1.29c-7.38,16.13-18.06,40.16-28.25,61.63-0.92,2-2.78,2-3.7,0-11.65-25.58-22.33-47.43-28.63-61.61l-0.56-1.27-0.17,1.39c-1.58,13.38-5.22,37.92-5.34,50-0.13,6.14,2,8.6,5.94,9.45a1.57,1.57,0,0,1,1.21,1.32,1.36,1.36,0,0,1-1.53,1.3c-3.65,0-7.07-.83-10.79-0.83s-7.11.87-10.52,0.87a1.38,1.38,0,0,1-1.51-1.24A1.42,1.42,0,0,1,265,99.11c4.07-.84,5.92-3.65,6.56-9.75,2.17-11.54,5.63-41.76,7.24-59.86,0.37-6.74-1.81-8.82-6.29-9.42a1.53,1.53,0,0,1-1.18-1.54,1.94,1.94,0,0,1,1.6-1.33H295a1.5,1.5,0,0,1,1.39.55,3.69,3.69,0,0,1,.34.68l0.4,1,16.4,36.66,6.3,14.11,1.82,4.12,0.52,1.19,2.39-5.29h0Z"/>
    <path class="cls-5" d="M139.64,23.11c-8.3,0-10.33.64-11.63,0.92l-0.31,65.44c0,6.7,1.61,8.62,5.56,9.45a1.79,1.79,0,0,1,1.2,1.48,1.13,1.13,0,0,1-1.3,1.34c-2.57,0-9-.81-13.27-0.81s-11,.81-13.52.81a1.18,1.18,0,0,1-1.25-1.31,1.59,1.59,0,0,1,1.16-1.51c3.9-.83,4.92-2.69,4.92-9.45v-60c0-6.69-1.61-8.62-5.69-9.45a1.91,1.91,0,0,1-1.06-1.81,1,1,0,0,1,1.21-1c9.87,0.9,33.94-.38,43-0.38,13.48,0,25.87,8.3,25.87,22.09,0,7.86-7.29,16.66-17.26,20.88l-0.67.29C162.79,64,167.51,72.25,172,80.18c1.23,2.2,3.83,7,6.39,11.71s5.09,9.15,6.18,10.65c5.65,7.72,11.35,10.38,15.94,10.38a1,1,0,0,1,.87.64,2.65,2.65,0,0,1,.3,1,1,1,0,0,1-1,1.2h-7.39c-10.36,0-17-1.76-25.06-11.89A103.56,103.56,0,0,1,161,93.45c-2.27-3.75-5.18-9.41-8.33-14.85S146.09,68,142.89,65.13c-0.85-.75-7.22-3.6-10.41-3.6h-0.84L134.11,58c11.53,0,23.2-4.12,23.2-17.41,0-12.16-8.12-17.54-17.67-17.54h0Z"/>
    <path class="cls-5" d="M79.15,33.51c0-19.09-12.71-26-26-26A69.39,69.39,0,0,0,39.5,9.05l-0.31,92.58c0,7.74,1.87,10,6.47,11A2,2,0,0,1,47,114.24a1.25,1.25,0,0,1-1.43,1.46c-3,0-9.88-1.1-14.77-1.1s-11.69,1.1-14.65,1.1a1.29,1.29,0,0,1-1.37-1.44,1.73,1.73,0,0,1,1.28-1.66c4.53-1,6.07-3.13,6.07-11V14.91c0-7.7-1.51-10-6.29-11a1.88,1.88,0,0,1-1.17-1.73A1.05,1.05,0,0,1,16,1.34C27.37,2.38,49.85.9,60.35,0.9c18.05,0,36.82,8.71,36.82,32.25,0,22.85-21.42,34.3-39.66,34.3a53.83,53.83,0,0,1-14.89-2L45.07,61a65,65,0,0,0,7.87.7c9.33,0,26.21-5.24,26.21-28.15h0Z"/>
    <path class="cls-5" d="M556.51,99a1.05,1.05,0,0,1,.87.64,2.65,2.65,0,0,1,.3,1,1.05,1.05,0,0,1-1,1.21H542.5c-4.35,0-8.54-.85-11.73-4.49-0.29-.33-1.37-1.67-2.41-3.1L524.57,89c-2.86-4-6.15-8.54-8.45-11.55-1.67-2.17-3.06-4.12-4.47-5.9a35.81,35.81,0,0,0-4.66-5,26.91,26.91,0,0,0-3.91-2.64,16.72,16.72,0,0,0-7.79-2.36h-0.84L496.9,58c11.52-.05,22.87-4.7,22.87-18,0-12.14-7.78-16.94-17.35-16.94a70.43,70.43,0,0,0-11.61.92l-0.33,65.43c0,6.7,1.6,8.62,5.56,9.45a1.79,1.79,0,0,1,1.2,1.48,1.13,1.13,0,0,1-1.29,1.34c-2.56,0-9.42-1-13.65-1s-10.26,1-12.83,1a1.18,1.18,0,0,1-1.25-1.31,1.6,1.6,0,0,1,1.16-1.51c3.9-.83,4.92-2.69,4.92-9.45v-60c0-6.69-1.61-8.62-5.69-9.45a1.91,1.91,0,0,1-1.06-1.81,1,1,0,0,1,1.2-1c9.87,0.9,32.27-.38,41.36-0.38,13.48,0,26.33,8.29,26.33,22.09,0,9.93-6.73,17.75-18.51,21.35l-1.09.34L517.91,61A20.28,20.28,0,0,1,525,65.81a42.43,42.43,0,0,1,3.37,3.79c1,1.26,1.9,2.49,2.67,3.55,3.07,4.21,6.61,9.41,9.25,12.82,7.21,9.3,11.75,13,16.25,13h0Z"/>
    <path class="cls-6" d="M567.26,72.62L555.1,99.32,547,95.63c12.2-26.85,29.2-64.69,36.75-79.81,0.84-1.68,3.54-1.43,4.26,0,7.74,15.4,36.74,73.86,36.74,73.86,2.57,5.51,4.79,8.79,9.23,9.63a1.6,1.6,0,0,1,1.26,1.38,0.93,0.93,0,0,1-1.16,1c-2.56,0-9.68-.78-13.91-0.78-4.87,0-11.08.78-13.64,0.78a1.46,1.46,0,0,1-1.46-1.09,1.07,1.07,0,0,1,1.1-1.29c4.21-1,4-3.43,1.39-9.27-0.48-1.08-2.76-5.5-4.93-9.61l-2.93-5.51-1-1.74-31.46-.55h0Zm27.83-7s-9.35-21.23-11.62-26.26l-0.34-.76-12.69,27,24.65,0h0Z"/>
    <path class="cls-5" d="M444.22,53.17l-4.1,7h-27.4V87.6c0,5.12.67,6.66,5.77,7.26,3.7,0.38,17.28.68,22.75-.08,5.14-.61,9-5.72,11.13-10.24a2,2,0,0,1,2.41-.58,2.8,2.8,0,0,1,.78.62,1.25,1.25,0,0,1,.27,1.09C455,89.5,453.15,97.2,452.5,99.38c-0.44,2.2-1.7,2.9-4.27,2.9-9.11,0-27.73-.77-38.76-0.77-5.26,0-15.22.26-17.91,0.26a1.21,1.21,0,0,1-1.25-1.32,1.54,1.54,0,0,1,1.16-1.54c3.9-.83,4.92-2.69,4.92-9.46V29.33c0-6.76-1-8.63-4.92-9.45a1.47,1.47,0,0,1-1.16-1.43,1.15,1.15,0,0,1,1.25-1.19h56.8c2.39,0,3.59,1.06,4,3.31L453.54,30a1.55,1.55,0,0,1-1.28,1.59,2.06,2.06,0,0,1-2.09-1.2,10.4,10.4,0,0,0-3.69-4.77c-1.81-1.21-2.85-1.66-9.26-1.66h-24.5V53.17h31.5Z"/>
    <path class="cls-5" d="M245.25,53.17l-4.11,7h-27.4V87.6c0,5.12.68,6.66,5.77,7.26,3.7,0.38,17.28.68,22.75-.08,5.14-.61,9-5.72,11.13-10.24A2,2,0,0,1,255.8,84a2.65,2.65,0,0,1,.78.61,1.23,1.23,0,0,1,.27,1.09c-0.85,3.84-2.69,11.53-3.33,13.72-0.44,2.2-1.71,2.9-4.27,2.9-9.11,0-27.73-.77-38.77-0.77-5.26,0-15.21.26-17.91,0.26a1.22,1.22,0,0,1-1.25-1.32,1.55,1.55,0,0,1,1.16-1.54c3.9-.83,4.91-2.69,4.91-9.46V29.33c0-6.76-1-8.63-4.91-9.45a1.49,1.49,0,0,1-1.16-1.43,1.16,1.16,0,0,1,1.25-1.19h56.81c2.39,0,3.6,1.06,4,3.31L254.56,30a1.55,1.55,0,0,1-1.29,1.59,2.05,2.05,0,0,1-2.08-1.2,10.41,10.41,0,0,0-3.7-4.77c-1.81-1.21-2.85-1.66-9.25-1.66H213.74V53.17h31.51Z"/>
    <path class="cls-7" d="M805.7,114.42a6.4,6.4,0,1,0-6.17-6.42,6.16,6.16,0,0,0,6.17,6.42h0ZM798,108a7.68,7.68,0,1,1,7.7,7.7A7.61,7.61,0,0,1,798,108h0Z"/>
    <path class="cls-7" d="M805.68,107.48c1.13,0,2.13-.08,2.13-1.45,0-1.09-1-1.29-1.91-1.29h-1.8v2.74h1.58Zm-1.58,5h-1.32v-8.86h3.33c2.07,0,3.09.77,3.09,2.52a2.29,2.29,0,0,1-2.27,2.44l2.49,3.9h-1.49l-2.3-3.84h-1.52v3.84h0Z"/>
    <polygon class="cls-1" points="825.41 32.3 825.41 83.42 793.1 83.42 793.1 115.73 741.99 115.73 741.99 83.42 709.68 83.42 709.68 32.3 741.99 32.3 741.99 0 793.1 0 793.1 32.3 825.41 32.3 825.41 32.3"/>
    <path class="cls-3" d="M764.68,37.31a4.1,4.1,0,1,1,7-2.9,4,4,0,0,1-1.16,2.81,4.1,4.1,0,0,0,2.87,7l22.9,0a31.7,31.7,0,0,0-57.22,0l22.69,0a4.1,4.1,0,0,0,4.1-4.1,4,4,0,0,0-1.19-2.84h0Z"/>
    <path class="cls-3" d="M762.74,54.92a3.85,3.85,0,0,0-3.41-5.66L738,46.87a31.73,31.73,0,0,0,10,35.82l14.61-27.54,0.12-.22h0Z"/>
    <path class="cls-3" d="M769.06,61.09a2.12,2.12,0,0,0-1.54-.69,2.16,2.16,0,0,0-1.55.69L750.38,84.41a31.7,31.7,0,0,0,34.37.16L769.06,61.09h0Z"/>
    <path class="cls-3" d="M797.43,46.92L776,49.28a3.93,3.93,0,0,0-4.21,3.84,3.84,3.84,0,0,0,.46,1.84l14.85,27.93a31.73,31.73,0,0,0,10.31-36h0Z"/>
    <path class="cls-1" d="M760.76,39c0.3,1.07-.06,1.43-0.57,1.42h-13.8a27.58,27.58,0,0,1,13.82-9,8,8,0,0,0,.55,7.62h0Z"/>
    <path class="cls-1" d="M789,40.39H774.83a0.81,0.81,0,0,1-.8-0.81,9.42,9.42,0,0,0,1.56-4.94,8,8,0,0,0-.75-3.4A27.63,27.63,0,0,1,789,40.39h0Z"/>
    <path class="cls-1" d="M758.62,54.35L747.06,76.12a27.64,27.64,0,0,1-6.12-24.87L758,53.15a0.76,0.76,0,0,1,.76.76l-0.14.44h0Z"/>
    <path class="cls-1" d="M768.42,66.64l10.81,16.24a27.66,27.66,0,0,1-23.28-.09L766.8,66.56a0.87,0.87,0,0,1,.77-0.46,1,1,0,0,1,.85.54h0Z"/>
    <path class="cls-1" d="M776.8,53.87a0.75,0.75,0,0,1,.76-0.76l16.88-1.86a27.78,27.78,0,0,1,.8,6.61A27.45,27.45,0,0,1,788.41,76L776.95,54.35l-0.15-.47h0Z"/>
  </g>
</svg>
