<?xml version="1.0" encoding="utf-8"?>
<!-- Generator: Adobe Illustrator 19.2.0, SVG Export Plug-In . SVG Version: 6.00 Build 0)  -->
<svg version="1.1" id="Layer_1" xmlns="http://www.w3.org/2000/svg" xmlns:xlink="http://www.w3.org/1999/xlink" x="0px" y="0px"
	 viewBox="0 0 377.4 510.7" style="enable-background:new 0 0 377.4 510.7;" xml:space="preserve">
<style type="text/css">
	.st0{fill:#F4F4F4;}
	.st1{fill:none;stroke:#898989;stroke-miterlimit:10;}
	.st2{fill:#1768A0;}
	.st3{fill:#FFFFFF;}
	.st4{font-family:'Roboto-Light';}
	.st5{font-size:7px;}
	.st6{fill:#737373;}
</style>
<rect x="15.7" y="14.2" class="st0" width="342.2" height="215"/>
<path class="st1" d="M357.9,244.2H19.5c-10.4,0-19-8.5-19-19V19.5c0-10.4,8.6-19,19-19h338.4c10.4,0,19,8.6,19,19v205.7
	C376.9,235.6,368.3,244.2,357.9,244.2z"/>
<rect x="15.7" y="14.2" class="st2" width="342.2" height="17.4"/>
<g>
	<text transform="matrix(1 0 0 1 24.6976 24.9402)" class="st3 st4 st5">Homepage alert goes here. </text>
</g>
<rect x="15.7" y="31.6" class="st3" width="342.2" height="21.6"/>
<g>
	<text transform="matrix(1 0 0 1 151.0309 44.2734)" class="st6 st4 st5">Navigation bar</text>
</g>
<rect x="15.7" y="280.2" class="st0" width="342.2" height="215"/>
<path class="st1" d="M357.9,510.2H19.5c-10.4,0-19-8.6-19-19V285.5c0-10.5,8.6-19,19-19h338.4c10.4,0,19,8.5,19,19v205.7
	C376.9,501.6,368.3,510.2,357.9,510.2z"/>
<rect x="15.7" y="280.2" class="st2" width="342.2" height="4.7"/>
<rect x="15.7" y="284.9" class="st3" width="342.2" height="21.6"/>
<g>
	<text transform="matrix(1 0 0 1 151.0309 297.5219)" class="st6 st4 st5">Navigation bar</text>
</g>
</svg>
