<?xml version="1.0" encoding="utf-8"?>
<!-- Generator: Adobe Illustrator 19.2.0, SVG Export Plug-In . SVG Version: 6.00 Build 0)  -->
<svg version="1.1" id="Layer_1" xmlns="http://www.w3.org/2000/svg" xmlns:xlink="http://www.w3.org/1999/xlink" x="0px" y="0px"
	 viewBox="0 0 220 425" style="enable-background:new 0 0 220 425;" xml:space="preserve">
<style type="text/css">
	.st0{fill:#F4F4F4;}
	.st1{fill:none;stroke:#898989;stroke-miterlimit:10;}
	.st2{fill:#B3292D;}
	.st3{fill:#212121;}
	.st4{font-family:'Roboto-Regular';}
	.st5{font-size:10px;}
	.st6{fill:#767677;}
	.st7{font-size:7px;}
	.st8{fill:#9E9E9E;}
	.st9{font-family:'Roboto-Light';}
	.st10{fill:none;stroke:#9E9E9E;stroke-width:0.5;stroke-miterlimit:10;}
	.st11{fill:#FFFFFF;}
</style>
<rect x="9.7" y="33.1" class="st0" width="199.7" height="335.6"/>
<path class="st1" d="M200.5,424.5h-181c-10.4,0-19-8.6-19-19v-386c0-10.4,8.6-19,19-19h181c10.4,0,19,8.6,19,19v386
	C219.5,416,210.9,424.5,200.5,424.5z"/>
<circle class="st1" cx="110" cy="396.5" r="17.4"/>
<rect x="9.7" y="33.1" class="st2" width="199.7" height="57.9"/>
<g>
	<text transform="matrix(1 0 0 1 28.0352 129.266)" class="st3 st4 st5">Input text</text>
</g>
<g>
	<text transform="matrix(1 0 0 1 27.9881 117.0707)" class="st6 st4 st7">Label text</text>
</g>
<g>
	<text transform="matrix(1 0 0 1 28.0352 143.1528)" class="st8 st9 st7">Helper text</text>
</g>
<line class="st10" x1="28" y1="135.8" x2="192" y2="135.8"/>
<g>
	<text transform="matrix(1 0 0 1 28.0352 180.5061)" class="st3 st4 st5">Input text</text>
</g>
<g>
	<text transform="matrix(1 0 0 1 27.9881 168.3108)" class="st6 st4 st7">Label text</text>
</g>
<g>
	<text transform="matrix(1 0 0 1 28.0352 194.3928)" class="st8 st9 st7">Helper text</text>
</g>
<line class="st10" x1="28" y1="187" x2="192" y2="187"/>
<g>
	<text transform="matrix(1 0 0 1 28.0352 243.1727)" class="st3 st4 st5">Input text</text>
</g>
<g>
	<text transform="matrix(1 0 0 1 27.9881 230.9773)" class="st6 st4 st7">Label text</text>
</g>
<g>
	<text transform="matrix(1 0 0 1 28.0352 257.0594)" class="st8 st9 st7">Helper text</text>
</g>
<line class="st10" x1="28" y1="249.7" x2="192" y2="249.7"/>
<g>
	<text transform="matrix(1 0 0 1 21.741 51.8888)"><tspan x="0" y="0" class="st11 st4 st5">Page top failure error displays here.</tspan><tspan x="0" y="14" class="st11 st4 st5">This is always pin to the top screen and</tspan><tspan x="0" y="28" class="st11 st4 st5">filed errors displayed on the view finder. </tspan></text>
</g>
</svg>
