<?xml version="1.0" encoding="utf-8"?>
<!-- Generator: Adobe Illustrator 19.2.0, SVG Export Plug-In . SVG Version: 6.00 Build 0)  -->
<svg version="1.1" id="Layer_1" xmlns="http://www.w3.org/2000/svg" xmlns:xlink="http://www.w3.org/1999/xlink" x="0px" y="0px"
	 viewBox="0 0 792 283" style="enable-background:new 0 0 792 283;" xml:space="preserve">
<defs>
</defs>
<style type="text/css">
	text {
		font-family: 'Arial', sans-serif;
	}
	.st0{fill:#FFFFFF;}
	.st1{fill:#0A99D6;}
	.st2{fill-rule:evenodd;clip-rule:evenodd;fill:#FFFFFF;}
	.title {
		font-size:78.5202px;
		font-weight: 700;
	}
	.subtitle {
		font-weight: 400;
		font-size:60.8752px;
	}
</style>
<ellipse class="st0" cx="137.6" cy="134.2" rx="42.9" ry="42.3"/>
<rect class="st1" width="792" height="283"/>
<path class="st2" d="M212.2,101.7v64.9h-41v41h-64.9v-41h-41v-64.9h41v-41h64.9v41H212.2L212.2,101.7z M135.1,108.1
	c-0.9-0.9-1.5-2.2-1.5-3.7c0-2.9,2.3-5.2,5.2-5.2c2.9,0,5.2,2.3,5.2,5.2c0,1.3-0.5,2.5-1.5,3.6c-1,0.9-1.6,2.3-1.6,3.7
	c0,2.9,2.3,5.2,5.2,5.2l29.1,0C168.8,103.3,155,94,139,94s-29.8,9.4-36.3,22.9l28.8,0c2.9,0,5.2-2.3,5.2-5.2
	C136.7,110.4,136.1,109.1,135.1,108.1L135.1,108.1z M132.7,130.4c0.4-0.7,0.6-1.5,0.6-2.3c0-2.7-2.2-4.9-4.9-4.9l-27.1-3
	c-1.6,4.3-2.5,9-2.5,14c0,12.8,5.9,24.1,15.2,31.5l18.5-35L132.7,130.4L132.7,130.4z M140.7,138.3c-0.5-0.5-1.2-0.9-1.9-0.9
	c-0.8,0-1.5,0.3-2,0.9L117,167.9c6.3,4.1,13.9,6.5,22,6.5c8,0,15.4-2.3,21.6-6.3L140.7,138.3L140.7,138.3z M176.7,120.3l-27.2,3
	c-3.1,0-5.3,2.2-5.3,4.9c0,0.8,0.2,1.6,0.6,2.3l18.8,35.4c9.5-7.4,15.5-18.8,15.5-31.8C179.2,129.3,178.3,124.6,176.7,120.3
	L176.7,120.3z M130.2,110.2c0.4,1.4-0.1,1.8-0.7,1.8h-17.5c4.5-5.5,10.6-9.5,17.5-11.5c-0.6,1.3-0.9,2.7-0.9,4.2
	C128.6,106.7,129.2,108.6,130.2,110.2L130.2,110.2z M166,112l-18,0c-0.6,0-1-0.5-1-1c1.4-2.4,2-4.3,2-6.3c0-1.5-0.3-3-0.9-4.3
	C155.2,102.3,161.4,106.4,166,112L166,112z M127.5,129.7l-14.7,27.6c-5.5-6.2-8.8-14.3-8.8-23.2c0-2.9,0.4-5.7,1-8.4l21.7,2.4
	c0.5,0,1,0.4,1,1L127.5,129.7L127.5,129.7z M139.9,145.3l13.7,20.6c-4.4,2.1-9.4,3.2-14.6,3.2c-5.3,0-10.4-1.2-14.9-3.3l13.8-20.6
	c0.2-0.3,0.6-0.6,1-0.6C139.3,144.6,139.6,144.9,139.9,145.3L139.9,145.3z M150.5,129.1c0-0.5,0.4-1,1-1l21.4-2.4
	c0.7,2.7,1,5.5,1,8.4c0,8.8-3.3,16.9-8.7,23l-14.6-27.5L150.5,129.1L150.5,129.1z"/>
<path class="st2" d="M188.8,205.9c4.3,0,7.8-3.5,7.8-8.1c0-4.6-3.4-8.1-7.8-8.1c-4.4,0-7.8,3.5-7.8,8.1
	C181,202.5,184.4,205.9,188.8,205.9L188.8,205.9z M179.1,197.8c0-5.6,4.5-9.7,9.8-9.7c5.2,0,9.7,4.1,9.7,9.7c0,5.6-4.5,9.8-9.7,9.8
	C183.6,207.5,179.1,203.4,179.1,197.8L179.1,197.8z"/>
<path class="st2" d="M188.8,197.1c1.4,0,2.7-0.1,2.7-1.8c0-1.4-1.2-1.6-2.4-1.6h-2.3v3.5H188.8L188.8,197.1z M186.8,203.4h-1.7
	v-11.2h4.2c2.6,0,3.9,1,3.9,3.2c0,2-1.2,2.9-2.9,3.1l3.2,4.9h-1.9l-2.9-4.9h-1.9V203.4L186.8,203.4z"/>
<text transform="matrix(1 0 0 1 245 116.0342)" class="st0 title">Style guide</text>
<text transform="matrix(1 0 0 1 245 197.2012)" class="st0 subtitle">work in progress...</text>
</svg>
